<?xml version="1.0" encoding="utf-8"?>
<COLLADA version="1.5.0" xmlns="http://www.collada.org/2008/03/COLLADASchema">
	<asset>
		<contributor>
			<authoring_tool>BrawlBox</authoring_tool>
		</contributor>
		<created>2023-01-02T21:56:04Z</created>
		<modified>2023-01-02T21:56:04Z</modified>
		<unit meter="0.01" name="centimeter" />
		<up_axis>Y_UP</up_axis>
	</asset>
	<library_materials>
		<material id="ShdSheik">
			<instance_effect url="#ShdSheik-fx" />
		</material>
	</library_materials>
	<library_effects>
		<effect id="ShdSheik-fx" name="ShdSheik">
			<profile_COMMON>
				<technique sid="COMMON">
					<phong>
						<diffuse />
					</phong>
				</technique>
			</profile_COMMON>
		</effect>
	</library_effects>
	<library_geometries>
		<geometry id="polygon0" name="polygon0">
			<mesh>
				<source id="polygon0_Positions">
					<float_array id="polygon0_PosArr" count="651">-1.856395 15.69168 -0.1608882 -2.386669 15.04373 -0.4235835 -2.397411 15.27176 0.6740728 -4.686473 15.37039 0.2468267 -2.842235 16.24929 0.697022 -4.686473 16.02371 0.2619634 -2.831493 16.52029 -0.3864741 -4.837352 16.20877 -0.2531733 -2.620555 15.71121 -1.133056 -4.831493 15.77029 -0.8771967 -4.837352 15.20974 -0.2770991 -5.276672 15.3706 0.2405986 -5.276672 16.02392 0.2557354 -6.133606 15.7417 0.3387432 -6.189758 16.31787 -0.2740498 -7.751282 15.74512 0.1898174 -7.745911 16.08008 -0.3756123 -8.177063 15.76123 -0.5094013 -7.071106 15.7666 -0.7305927 -7.745911 15.38281 -0.3922139 -6.189758 15.10107 -0.3023701 7.751286 15.74512 0.1898174 7.745914 16.08008 -0.3756123 8.177067 15.76123 -0.5094013 7.07111 15.7666 -0.7305927 7.745914 15.38281 -0.3922139 6.189762 15.10107 -0.3023701 6.13361 15.7417 0.3387432 6.189762 16.31787 -0.2740498 5.276676 16.02392 0.2557354 5.143375 16.20898 -0.2564717 4.686479 16.02374 0.2619634 4.837358 16.2088 -0.2531733 2.831498 16.52032 -0.3864741 2.62056 15.71124 -1.133056 1.8564 15.69171 -0.1608882 2.386674 15.04376 -0.4235834 2.397416 15.27179 0.6740728 4.686479 15.37042 0.2468267 2.84224 16.24932 0.697022 -1.144712 1.439188 -0.795823 -0.8834811 0.8117466 -0.346116 -0.5636569 3.866922 -0.2220925 -1.143247 1.571024 0.2495871 -0.5612155 5.613993 0.1631615 -1.04419 5.634046 0.8342097 -0.4250492 5.970471 0.2497371 -0.04663122 9.9026 0.4675106 -0.7473148 6.397717 -0.4856144 -0.6105961 10.44264 -1.007099 -1.446045 6.397717 -0.4846379 -1.772217 10.47877 -0.7400089 -2.264405 8.939221 0.3903622 -2.255127 10.58766 0.5280575 -1.289307 10.02711 1.472394 -1.29126 11.90944 0.2785459 0.8834851 0.8117437 -0.3461159 1.144716 1.439185 -0.7958229 0.5636609 3.86692 -0.2220924 1.228212 4.055396 -1.173264 0.7472546 5.561255 -0.457444 1.445985 5.561255 -0.4564674 1.446048 6.397736 -0.4846378 1.629642 5.97049 0.2516904 2.264408 8.938751 0.3903622 1.044193 5.634064 0.8342099 1.28931 10.02713 1.472394 0.0466342 9.902618 0.4675107 1.291263 11.90945 0.2785458 0.610599 10.44266 -1.007099 1.77222 10.47879 -0.7400088 1.143251 1.571021 0.2495873 0.5612195 5.61399 0.1631615 0.4250522 5.97049 0.2497372 0.7473178 6.397736 -0.4856143 -1.228208 4.055399 -1.173264 -0.7472507 5.561258 -0.457444 -1.445981 5.561258 -0.4564674 -1.629639 5.970471 0.2516902 5.276676 15.3706 0.2405986 4.837358 15.20929 -0.2770991 5.143375 15.20947 -0.2799092 5.05402 15.77002 -0.8668232 -5.054016 15.77002 -0.8668232 -5.143372 16.20898 -0.2564717 -1.629575 5.613504 0.1651146 -2.004086 4.028055 -0.2045144 1.629579 5.613502 0.1651146 2.004091 4.028052 -0.2045143 1.44745 0.8117437 -0.3451393 -5.143372 15.20947 -0.2799092 4.831498 15.77032 -0.8771967 2.25513 10.58719 0.5280576 -1.447446 0.8117466 -0.3451394 -2.953125 16.6924 -1.016207 -1.477051 14.50832 -0.9278281 -2.375 16.50295 -1.02109 2.375 16.50295 -1.02109 0 17.12697 -9.36985E-05 2.375 16.03078 0.8050821 0 15.77004 1.560941 1.960938 14.49221 1.131742 0 14.49221 1.808988 1.274414 12.40527 1.088379 0.002441406 12.39307 1.631348 1.754883 11.26982 1.038977 0.002441406 10.10527 1.515051 0 9.636524 0.1610469 -0.1699219 11.72051 -2.775395 1.706819E-08 11.72591 -2.950313 -0.1796875 13.34818 -2.401028 -1.103947E-09 13.35021 -2.508495 -0.4155273 15.02517 -2.010919 1.412877E-08 15.02602 -2.295022 -0.6806641 16.58552 -1.353129 6.837321E-09 16.64945 -1.818913 -1.461914 17.29038 -0.675915 0 18.13413 -1.230603 -2.953125 16.22023 0.8099649 -2.375 16.03078 0.8050821 -1.960938 14.49221 1.131742 -1.274414 12.40527 1.088379 -1.754883 11.26982 1.038977 1.739746 17.42417 0.1746709 1.697266 18.4271 0.1590459 1.09375 18.45347 0.08580375 0.5927734 18.75474 1.627796 0 18.63853 1.317249 0.6923828 17.98325 1.99596 0.3632813 16.98081 1.929065 2.127999E-08 11.71229 -2.614432 1.437948E-09 13.34444 -2.302834 2.03624E-08 15.01714 -1.752607 1.219473E-08 16.04728 -0.9298902 -0.8588867 16.98081 1.934925 -0.6923828 17.93882 2.075062 -0.574707 18.66636 1.627796 -1.09375 18.48032 0.5526006 -1.571289 18.30308 0.6702764 -1.680664 17.46861 0.836292 0 18.46177 1.380237 0 19.40855 1.087757 0.9169922 19.36118 0.555042 0 19.54331 -0.1920283 0.9169922 19.02036 -0.6471064 0 18.85532 -1.170056 -0.9169922 19.36118 0.555042 -1.061035 18.40513 0.7249639 -1.061035 18.22446 -0.5411494 -0.875 17.18296 0.8138311 -0.9169922 19.02036 -0.6471064 0 17.09019 1.416858 1.061035 18.40513 0.7249639 1.061035 18.22446 -0.5411494 1.274414 12.39502 -0.3447266 1.636719 11.26006 -0.5791875 0 10.49443 -1.186121 0 15.84621 -0.9488242 -1.074707 15.75881 -0.1123984 -1.541504 17.23032 0.7215459 0 15.49904 1.548734 0 16.98911 1.837269 1.461914 17.29038 -0.675915 0.875 17.18296 0.8138311 2.953125 16.6924 -1.016207 1.477051 14.50832 -0.9278281 -1.274414 12.39502 -0.3447266 -1.636719 11.26006 -0.5791875 2.375 16.03078 0.8050821 0.1699219 11.72051 -2.775395 2.643107E-08 11.15859 -2.852339 0.1796875 13.34818 -2.401028 1.074707 15.75881 -0.1123984 1.541504 17.23032 0.7215459 0.4155274 15.02517 -2.010919 0.6806641 16.58552 -1.353129 2.953125 16.22023 0.8099649 -0.5435802 0.02315383 2.74333 -1.855104 0.01436478 2.035811 -1.198854 0.8361421 1.656905 -1.855104 -0.01004923 0.07829145 -1.198854 1.150595 0.4904009 -1.526979 1.917197 -0.4715132 -0.8707286 1.917197 -0.4715132 7.874107 16.00148 0.1389277 7.866294 16.02102 -0.6848028 8.736412 15.99807 0.2790644 9.184166 16.02443 -0.848377 10.03573 15.52297 -0.1198613 9.894615 15.53957 -0.8122442 -9.26376 15.09327 0.4773066 -8.364346 15.3838 0.5017207 -7.870205 15.52736 -0.2844121 -7.874111 16.00148 0.1389277 -7.866299 16.02101 -0.6848027 -1.198854 0.001669548 -1.175615 -0.5430919 -0.01004923 0.07877973 8.957115 15.54152 -0.9079473 7.870201 15.52736 -0.2844121 8.734459 15.51906 0.05347851 0.5430889 -0.0100472 0.07877976 0.8707256 1.917199 -0.4715132 1.198851 1.150597 0.4904009 1.526976 1.917199 -0.4715132 1.855101 -0.0100472 0.07829148 -8.736416 15.99806 0.2790644 -9.18417 16.02443 -0.8483769 -9.894619 15.53956 -0.8122442 -10.03573 15.52296 -0.1198613 -8.734463 15.51906 0.0534785 -8.957119 15.54152 -0.9079473 0.5435772 0.02315593 2.74333 1.198851 0.8361442 1.656905 9.263756 15.09328 0.4773066 8.364342 15.38381 0.5017207 1.855101 0.01436687 2.035811 1.198851 0.001671553 -1.175615</float_array>
					<technique_common>
						<accessor source="#polygon0_PosArr" count="217" stride="3">
							<param name="X" type="float" />
							<param name="Y" type="float" />
							<param name="Z" type="float" />
						</accessor>
					</technique_common>
				</source>
				<source id="polygon0_Normals">
					<float_array id="polygon0_NormArr" count="897">0.9810791 0.1914063 -0.0281372 0.4147339 -0.8668213 -0.2767945 0.4391479 -0.517395 0.7344971 -0.08746338 -0.6258545 0.7750244 0.3220215 0.6473389 0.6908569 -0.116333 0.562561 0.8185425 0.2982178 0.9316406 -0.2075195 -0.06433105 0.9594116 -0.2745361 0.4310913 0.08917239 -0.8978882 -0.09777832 0.03045657 -0.994751 -0.04272461 -0.9376831 -0.3449097 -0.007873535 -0.6227417 0.7824097 0.003173828 0.6002808 0.7998047 -0.1072998 0.007019019 0.9942017 -0.05834961 0.9975586 0.03875735 -0.4817505 0.02020262 0.8760986 -0.3335571 0.9190063 -0.210083 -0.8734741 0.07348634 -0.4812622 -0.1173706 0.05987551 -0.991272 -0.3778076 -0.8867798 -0.2662964 -0.07800293 -0.9968872 -0.009155298 0.4817505 0.02020264 0.8760986 0.3335571 0.9190063 -0.210083 0.8734741 0.07348633 -0.4812622 0.1173706 0.05987549 -0.991272 0.3778076 -0.8867798 -0.2662964 0.07800293 -0.9968872 -0.009155273 0.1072998 0.007019043 0.9942017 0.05834961 0.9975586 0.03875732 -0.003173828 0.6002808 0.7998047 -0.05316162 0.9901733 -0.1293945 0.116333 0.562561 0.8185425 0.06433105 0.9594116 -0.2745361 -0.2982178 0.9316406 -0.2075195 -0.4310913 0.08917236 -0.8978882 -0.9810791 0.1914063 -0.02813721 -0.4147339 -0.8668213 -0.2767944 -0.4391479 -0.517395 0.7344971 0.08746338 -0.6258545 0.7750244 -0.3220215 0.6473389 0.6908569 0.817749 -0.06036375 -0.5723877 0.9942017 -0.1027832 -0.03192139 0.9804077 -0.05187988 -0.1899414 0.1081543 -0.1644898 0.9804077 0.9647827 -0.1470947 0.2181396 -0.003723145 -0.2333374 0.9724121 0.9699707 -0.2006836 0.137207 0.9028931 0.1676636 0.395813 0.5215454 -0.0901489 -0.8484497 0.5059204 0.3291626 -0.7973633 -0.680481 -0.09423827 -0.7266846 -0.6779175 0.2247925 -0.6998901 -0.9759521 -0.1281738 0.1764526 -0.9212646 0.3077393 0.237854 -0.1641846 0.1680908 0.9719849 0.01348877 0.9976196 0.06781008 -0.9942017 -0.1027832 -0.03192139 -0.817749 -0.06036377 -0.5723877 -0.9804077 -0.05187988 -0.1899414 -0.02667236 0.1345825 -0.9905396 -0.6491699 0.09179688 -0.7550659 0.6395874 0.2104492 -0.7393188 0.680481 -0.09423828 -0.7266846 0.9684448 -0.1481934 0.2003784 0.9759521 -0.1281738 0.1764526 0.003723145 -0.2333374 0.9724121 0.1641846 0.1680908 0.9719849 -0.9028931 0.1676636 0.395813 -0.01348877 0.9976196 0.06781006 -0.5059204 0.3291626 -0.7973633 0.6779175 0.2247925 -0.6998901 -0.1081543 -0.1644897 0.9804077 -0.9647827 -0.1470947 0.2181396 -0.9699707 -0.2006836 0.137207 -0.5215454 -0.09014893 -0.8484497 0.02667236 0.1345825 -0.9905396 0.6491699 0.09179689 -0.7550659 -0.6395874 0.2104492 -0.7393188 -0.9684448 -0.1481934 0.2003784 0.007873535 -0.6227417 0.7824097 0.04272461 -0.9376831 -0.3449097 -0.05377197 -0.9737549 -0.2212524 -0.006896973 0.06726074 -0.9976807 0.006896973 0.06726076 -0.9976807 0.05316162 0.9901733 -0.1293945 -0.9290161 0.002136221 0.3700562 -0.9864502 0.007080082 -0.1637573 0.9290161 0.00213623 0.3700562 0.9864502 0.007080078 -0.1637573 0.9851685 -0.1693115 -0.02807617 0.7640381 -0.1083374 -0.6360474 0.05377197 -0.9737549 -0.2212525 0.09777832 0.03045654 -0.994751 0.9212646 0.3077393 0.237854 -0.7640381 -0.1083374 -0.6360474 -0.9851685 -0.1693115 -0.02807618 -0.02758789 -0.059021 -0.9978638 -0.009277344 -0.1245728 -0.9921875 -0.01928711 0.7835083 -0.6210327 0.01928711 0.7835083 -0.6210327 0 0.9578857 0.2871704 0.08935547 0.6949463 0.713501 0 0.4904785 0.87146 0.1865234 0.08575439 0.9786987 0.0002441406 -0.02001953 0.9998169 0.3705444 -0.02624512 0.9284668 0.0005493164 -0.0004882813 1 0.87323 -0.1610107 0.4598999 0.0005493164 -0.5560303 0.8311768 0.6257324 -0.7753906 -0.08514404 -0.6196289 0.1892774 -0.7617489 -0.5844116 0.1504487 -0.7973942 -0.5537109 0.174175 -0.814289 -0.5336914 0.2624463 -0.8039532 -0.5084839 0.2877197 -0.8115845 0.08288574 0.2282104 0.9700928 -0.08935547 0.6949463 0.713501 -0.1865234 0.08575439 0.9786987 -0.369751 -0.0267334 0.928772 -0.8728027 -0.1611328 0.4606934 -0.6255493 -0.7755737 -0.08447266 0.1202393 -0.01000977 -0.9926758 0.8016357 0.5936279 -0.07092285 0.0446167 0.8150635 -0.5776367 0.1011353 0.9370117 0.3343506 -0.5101318 0.625 0.5908813 0.3884277 0.1653442 0.9065552 0.1281738 -0.1075439 0.9859009 0.8425293 -0.1268311 0.5234985 -0.590271 -0.1678457 0.7895535 -0.5459595 -0.2177668 0.8090197 -0.5655518 -0.3544047 0.7446925 -0.621582 -0.4356884 0.6509689 -0.621582 -0.4356482 0.6509867 0.8128052 -0.2200317 0.5394287 -0.3068237 0.2720947 0.9120483 0.592041 0.5708008 0.5689697 -0.2035522 0.8998413 0.3858032 -0.2590332 0.8146362 -0.5189819 -0.8135986 0.5784302 0.0592041 -0.1757813 -0.1699219 -0.9696655 0.5169678 0.1688843 0.8391724 0.3632813 0.7452393 0.5592041 0.6504517 0.6555176 0.383667 0.2350464 0.93927 -0.2501221 0.6275024 0.4656982 -0.6239624 0.3654175 0.4851074 -0.7944336 0.513916 0.1311646 -0.8477783 -0.3632813 0.7452393 0.5592041 -0.5169678 0.1688843 0.8391724 -0.6504517 0.6555176 0.383606 -0.8214111 0.05230713 0.5678711 -0.9377441 0.1556396 -0.3104248 -0.8939209 0.0534668 0.4449463 -0.8677368 0.4123535 -0.2775269 -0.513916 0.1311646 -0.8477783 -0.6275024 0.4656982 -0.6239624 -0.2350464 0.93927 -0.2501221 0.5482178 -0.00213623 0.8363647 0.817749 0.06036377 0.5723877 0.9377441 0.1556396 -0.3104248 0.9991455 0.0413208 -0.0003051758 0.9949341 0.06298828 -0.07861328 0.8056641 -0.2929688 -0.5148926 0 -0.1374512 -0.9905396 -0.5400391 -0.4074097 -0.7364502 -0.8198242 -0.3684082 -0.4383545 -0.8810425 -0.4492188 -0.1480103 -0.847229 -0.3289795 0.4171143 -0.7059937 -0.3290405 0.6271362 -0.5950317 -0.152832 0.7890625 0.8677368 0.4123535 -0.2775269 0.8939209 0.0534668 0.4449463 0.02758789 -0.059021 -0.9978638 0.009277344 -0.1245728 -0.9921875 -0.07843018 0.1415405 -0.9868164 0.3045044 0.9222412 0.2382813 0.07843018 0.1415405 -0.9868164 -0.8056641 -0.2929688 -0.5148926 -0.9991455 0.0413208 -0.0003051758 -0.9949341 0.06298828 -0.07861328 -0.9517212 -0.2783813 -0.1292725 -0.9460449 -0.2591553 -0.194519 -0.9191284 -0.3602295 -0.159668 0.9191284 -0.3602295 -0.159668 0.9460449 -0.2592163 -0.194519 0.9517212 -0.2783813 -0.1292725 0.6636353 -0.2954559 0.6872138 0.9572754 -0.2892611 -0.004263941 0.7105713 -0.1198133 -0.6933641 0.6196289 0.1892774 -0.7617489 0.5844116 0.1504487 -0.7973942 -0.6636353 -0.2954559 0.6872138 -0.9572754 -0.2892612 -0.004263918 -0.7105713 -0.1198133 -0.6933641 0.5400391 -0.4074097 -0.7364502 0.8810425 -0.4492188 -0.1480103 0.8198242 -0.3684082 -0.4383545 0.847229 -0.3289795 0.4171143 0.590271 -0.1678456 0.7895535 0.5459595 -0.2177667 0.8090197 0.5655518 -0.3544047 0.7446925 0.5537109 0.174175 -0.814289 0.5084839 0.2877197 -0.8115845 0.5336914 0.2624463 -0.8039532 0.621582 -0.4356482 0.6509867 0.621582 -0.4356884 0.6509689 0.6536865 -0.7233276 -0.2223511 0.6536865 -0.72338 -0.2223818 0.6536865 -0.72335 -0.2223964 -0.6536865 -0.7233276 -0.2223511 -0.6536865 -0.72338 -0.2223818 -0.6536865 -0.72335 -0.2223964 0.7059937 -0.3290405 0.6271362 0.5950317 -0.152832 0.7890625 -0.7987061 0.1323242 0.5869751 -0.5482178 -0.00213623 0.8363647 -0.3654175 0.4851074 -0.7944336 -0.3045044 0.9222412 0.2382813 -0.08288574 0.2282104 0.9700928 -0.7895508 0.04760742 0.6118164 -0.3760986 0.6185913 0.6898193 -0.633606 0.6779785 0.3727417 -0.736145 0.6115112 0.2901611 -0.8567505 0.4694824 0.213501 0.0001220703 0.769104 0.6390991 -0.4659424 0.6077271 0.6431274 0.4660645 0.607605 0.6431274 0.0001831055 0.9996948 0.02349854 0.1311035 0.9885254 0.07519531 0.3289185 0.9437256 0.03521729 0.4817505 0.8754272 0.03967285 0.5648193 0.8196411 -0.0958252 0.3070068 -0.9515381 0.01934812 0.6204834 -0.7416992 0.2545776 0.8312988 -0.5246582 0.1837158 0.9505615 -0.2022705 0.2355347 0.999939 -6.103538E-05 0.009277344 -0.0001220703 -0.999939 -0.009643579 -0.0001220703 -1 0.001464819 -0.0001220703 -0.999939 0.01251218 0.1013794 0.07470703 -0.9920654 -0.01025391 0.1271973 -0.9918213 -0.1165771 -0.6446533 -0.7554932 -0.2880249 -0.2216797 -0.9316406 -0.223938 -0.8837891 -0.4108276 -0.0001831055 -0.9996948 -0.02349854 -0.8569946 0.4690552 0.213501 -0.4660645 0.607605 0.6431274 -0.0001220703 0.769104 0.6390991 0.4659424 0.6077271 0.6431274 0.8567505 0.4694824 0.213501 -0.0001831055 0.9996948 0.02349856 -0.1311035 0.9885254 0.07519533 -0.3289185 0.9437256 0.03521731 -0.5648193 0.8196411 -0.09582517 -0.4817505 0.8754272 0.03967287 -0.1154175 0.276062 0.9541626 0.01477051 0.3488159 0.9370728 0.1446533 0.4136963 0.8988647 -0.3244019 -0.4335327 -0.8406982 -0.5831909 -0.07995603 -0.8084106 -0.7294312 0.2890625 -0.6199951 -0.1013794 0.07470705 -0.9920654 0.1165771 -0.6446533 -0.7554932 0.01025391 0.1271973 -0.9918213 0.2880249 -0.2216797 -0.9316406 0.223938 -0.8837891 -0.4108277 0.0001831055 -0.9996948 -0.02349856 -0.7835083 0.6213379 -0.00769043 -0.838562 0.541748 0.05786133 0.8569946 0.4690552 0.213501 0.838562 0.541748 0.05786134 0.3244019 -0.4335327 -0.8406982 0.5831909 -0.07995605 -0.8084106 0.7294312 0.2890625 -0.6199951 -0.3070068 -0.9515381 0.01934814 -0.8312988 -0.5246582 0.1837158 -0.6204834 -0.7416992 0.2545776 -0.9505615 -0.2022705 0.2355347 0.1154175 0.276062 0.9541626 -0.01477051 0.3488159 0.9370728 -0.1446533 0.4136963 0.8988647 0.3760986 0.6185913 0.6898193 0.736145 0.6115112 0.2901611 0.633606 0.6779785 0.3727417 0.0001220703 -0.999939 -0.009643555 0.0001220703 -1 0.001464844 0.0001220703 -0.999939 0.01251221 -0.1208496 -0.423645 0.8977051 0.0001831055 0.3450318 -0.9385986 -0.8859253 0.01867677 -0.4634399 0.8862305 0.01843263 -0.4628906 0.7835083 0.6213379 -0.007690415 0.1208496 -0.423645 0.8977051 -0.999939 -6.103516E-05 0.009277344 -0.0001831055 0.3450317 -0.9385986 0.8859253 0.01867676 -0.4634399 -0.8862305 0.01843262 -0.4628906</float_array>
					<technique_common>
						<accessor source="#polygon0_NormArr" count="299" stride="3">
							<param name="X" type="float" />
							<param name="Y" type="float" />
							<param name="Z" type="float" />
						</accessor>
					</technique_common>
				</source>
				<vertices id="polygon0_Vertices">
					<input semantic="POSITION" source="#polygon0_Positions" />
				</vertices>
				<triangles material="ShdSheik" count="370">
					<input semantic="VERTEX" source="#polygon0_Vertices" offset="0" />
					<input semantic="NORMAL" source="#polygon0_Normals" offset="1" />
					<p>2 2 1 1 0 0 3 3 1 1 2 2 4 4 3 3 2 2 5 5 3 3 4 4 6 6 5 5 4 4 7 7 5 5 6 6 8 8 7 7 6 6 9 9 7 7 8 8 1 1 9 9 8 8 10 10 9 9 1 1 3 3 10 10 1 1 11 11 10 10 3 3 12 12 11 11 3 3 13 13 11 11 12 12 14 14 13 13 12 12 15 15 13 13 14 14 16 16 15 15 14 14 17 17 15 15 16 16 18 18 17 17 16 16 19 19 17 17 18 18 20 20 19 19 18 18 15 15 19 19 20 20 13 13 15 15 20 20 23 23 22 22 21 21 24 24 22 22 23 23 25 25 24 24 23 23 26 26 24 24 25 25 21 21 26 26 25 25 27 27 26 26 21 21 28 28 27 27 21 21 29 29 27 27 28 28 30 30 29 29 28 28 31 31 29 29 30 30 32 32 31 31 30 30 33 33 31 31 32 32 34 34 33 33 32 32 35 35 33 33 34 34 36 36 35 35 34 34 37 37 35 35 36 36 38 38 37 37 36 36 39 39 37 37 38 38 31 31 39 39 38 38 33 33 39 39 31 31 42 42 41 41 40 40 43 43 41 41 42 42 44 44 43 43 42 42 45 45 43 43 44 44 46 46 45 45 44 44 47 47 45 45 46 46 48 48 47 47 46 46 49 49 47 47 48 48 50 50 49 49 48 48 51 51 49 49 50 50 52 52 51 51 50 50 53 53 51 51 52 52 54 54 53 53 52 52 55 55 53 53 54 54 47 47 55 55 54 54 49 49 55 55 47 47 58 58 57 57 56 56 59 59 57 57 58 58 60 60 59 59 58 58 61 61 59 59 60 60 62 62 61 61 60 60 63 63 61 61 62 62 64 64 63 63 62 62 65 65 63 63 64 64 66 66 65 65 64 64 67 67 65 65 66 66 68 68 67 67 66 66 69 69 67 67 68 68 70 70 69 69 68 68 62 62 69 69 70 70 64 64 62 62 70 70 71 71 58 58 56 56 72 72 58 58 71 71 65 65 72 72 71 71 73 73 72 72 65 65 67 67 73 73 65 65 74 74 73 73 67 67 69 69 74 74 67 67 62 62 74 74 69 69 75 75 42 42 40 40 76 76 42 42 75 75 77 77 76 76 75 75 50 50 76 76 77 77 78 78 50 50 77 77 52 52 50 50 78 78 45 45 52 52 78 78 38 38 29 29 31 31 79 79 29 29 38 38 80 80 79 79 38 38 81 81 79 79 80 80 82 82 81 81 80 80 26 26 81 81 82 82 24 24 26 26 82 82 14 14 18 18 16 16 83 83 18 18 14 14 84 84 83 83 14 14 7 7 83 83 84 84 5 5 7 7 84 84 85 85 43 43 45 45 86 86 43 43 85 85 77 77 86 86 85 85 75 75 86 86 77 77 71 71 87 87 65 65 88 88 87 87 71 71 89 89 88 88 71 71 57 90 88 88 89 89 83 83 20 20 18 18 90 91 20 20 83 83 10 10 90 91 83 83 11 11 90 91 10 10 36 36 80 80 38 38 91 92 80 80 36 36 34 34 91 92 36 36 32 32 91 92 34 34 76 76 44 44 42 42 48 48 44 44 76 76 50 50 48 48 76 76 72 72 60 60 58 58 74 74 60 60 72 72 73 73 74 74 72 72 92 93 66 66 64 64 68 68 66 66 92 93 70 70 68 68 92 93 0 0 4 4 2 2 6 6 4 4 0 0 8 8 6 6 0 0 12 12 84 84 14 14 5 5 84 84 12 12 3 3 5 5 12 12 79 79 27 27 29 29 26 26 27 27 79 79 81 81 26 26 79 79 82 82 28 28 24 24 30 30 28 28 82 82 32 32 30 30 82 82 55 55 51 51 53 53 49 49 51 51 55 55 54 54 45 45 47 47 52 52 45 45 54 54 40 94 86 86 75 75 93 95 86 86 40 94 78 78 85 85 45 45 77 77 85 85 78 78 59 59 88 88 57 90 61 61 88 88 59 59 61 61 87 87 88 88 63 63 87 87 61 61 83 83 9 9 10 10 7 7 9 9 83 83 20 20 11 11 13 13 90 91 11 11 20 20 39 39 35 35 37 37 33 33 35 35 39 39 22 22 28 28 21 21 24 24 28 28 22 22 82 82 91 92 32 32 80 80 91 92 82 82 48 48 46 46 44 44 43 43 86 86 93 95 60 60 74 74 62 62 87 87 63 63 65 65 70 70 92 93 64 64 8 8 0 0 1 1 19 19 15 15 17 17 25 25 23 23 21 21 96 98 95 97 94 96 97 99 95 97 96 98 98 100 97 99 96 98 99 101 97 99 98 100 100 102 99 101 98 100 101 103 99 101 100 102 102 104 101 103 100 102 103 105 101 103 102 104 104 106 103 105 102 104 105 107 103 105 104 106 106 108 105 107 104 106 107 109 105 107 106 108 110 111 109 110 108 110 111 111 109 110 110 111 112 112 111 111 110 111 113 112 111 111 112 112 114 113 113 112 112 112 115 113 113 112 114 113 116 114 115 113 114 113 117 114 115 113 116 114 120 117 119 116 118 115 102 104 119 116 120 117 121 118 102 104 120 117 104 106 102 104 121 118 122 119 104 106 121 118 106 108 104 106 122 119 107 120 106 108 122 119 125 123 124 122 123 121 126 124 124 122 125 123 127 125 126 124 125 123 128 126 126 124 127 125 129 127 128 126 127 125 123 128 128 126 129 127 131 130 108 129 130 129 110 130 108 129 131 130 132 131 110 130 131 130 112 131 110 130 132 131 133 132 112 131 132 131 114 133 112 131 133 132 127 136 135 135 134 134 136 137 135 135 127 136 137 138 136 137 127 136 138 139 136 137 137 138 139 140 138 139 137 138 142 143 141 142 140 141 143 144 141 142 142 143 144 145 143 144 142 143 145 146 143 144 144 145 117 147 145 146 144 145 146 150 140 149 141 148 147 151 140 149 146 150 148 152 147 151 146 150 149 153 147 151 148 152 116 154 149 153 148 152 148 152 117 155 116 154 150 156 117 155 148 152 146 150 150 156 148 152 143 157 150 156 146 150 141 148 143 157 146 150 152 159 140 141 151 158 142 143 140 141 152 159 153 160 142 143 152 159 144 145 142 143 153 160 117 147 144 145 153 160 105 107 154 162 103 161 155 163 154 162 105 107 107 109 155 163 105 107 156 164 155 163 107 109 158 167 116 166 157 165 159 168 116 166 158 167 160 169 159 168 158 167 161 170 159 168 160 169 153 160 162 171 117 147 163 172 162 171 153 160 152 159 163 172 153 160 151 158 163 172 152 159 165 174 97 99 164 173 95 97 97 99 165 174 166 175 95 97 165 174 96 98 119 116 98 100 118 176 119 116 96 98 94 176 118 176 96 98 156 164 154 177 155 163 166 175 154 177 156 164 167 178 166 175 156 164 120 181 166 180 121 179 95 182 166 180 120 181 96 183 95 182 120 181 168 184 165 185 97 184 101 186 165 185 168 184 101 186 154 162 165 185 103 161 154 162 101 186 107 120 167 178 156 164 122 119 167 178 107 120 122 119 166 180 167 178 121 179 166 180 122 119 170 188 169 188 130 187 109 189 169 188 170 188 109 190 171 191 169 190 111 191 171 191 109 190 108 193 170 193 130 192 109 194 170 193 108 193 162 197 172 196 157 195 173 198 172 196 162 197 169 199 131 200 130 199 171 200 131 200 169 199 171 200 132 201 131 200 174 201 132 201 171 200 111 191 174 202 171 191 113 202 174 202 111 191 162 203 115 204 117 203 175 204 115 204 162 203 133 206 174 201 175 205 132 201 174 201 133 206 175 204 113 202 115 204 174 202 113 202 175 204 157 207 175 208 162 207 133 209 175 208 157 207 114 211 157 210 116 210 133 212 157 210 114 211 173 198 160 213 172 196 161 214 160 213 173 198 138 139 135 135 136 137 139 215 135 135 138 139 124 122 128 126 123 128 126 124 128 126 124 122 147 151 151 216 140 149 149 153 151 216 147 151 145 217 150 156 143 157 117 155 150 156 145 217 100 102 119 116 102 104 98 100 119 116 100 102 99 101 164 218 97 99 176 218 164 218 99 101 99 101 101 103 176 219 139 215 134 220 135 135 120 181 119 183 96 183 165 174 154 177 166 175 179 223 178 222 177 221 180 224 178 222 179 223 181 225 180 224 179 223 182 226 180 224 181 225 183 227 182 226 181 225 186 229 185 228 184 228 187 230 185 228 186 229 188 231 187 230 186 229 189 232 187 230 188 231 192 235 191 234 190 233 193 236 191 234 192 235 194 237 193 236 192 235 196 239 180 239 195 238 178 240 180 239 196 239 177 240 178 240 196 239 197 243 187 242 189 241 185 244 187 242 197 243 198 245 185 244 197 243 197 243 199 246 198 245 188 246 199 246 197 243 189 246 188 246 197 243 202 249 201 248 200 247 203 250 201 248 202 249 204 251 203 250 202 249 194 252 205 253 193 252 206 254 205 253 194 252 208 256 206 254 207 255 205 253 206 254 208 256 191 258 205 258 190 257 193 259 205 258 191 258 190 261 209 261 192 260 205 262 209 261 190 261 206 265 210 264 207 263 194 266 210 264 206 265 192 267 210 264 194 266 209 268 210 264 192 267 212 270 200 247 211 269 202 249 200 247 212 270 181 225 196 271 183 227 179 272 196 271 181 225 199 274 213 274 198 273 186 275 213 274 199 274 214 278 198 277 213 276 184 279 198 277 214 278 186 281 214 281 213 280 184 282 214 281 186 281 215 285 212 284 211 283 204 251 212 284 215 285 204 287 200 287 216 286 215 288 200 287 204 287 208 268 210 264 209 268 207 268 210 264 208 268 205 289 208 289 209 289 195 290 182 290 183 290 182 291 195 291 180 291 195 292 183 292 196 292 196 271 179 272 177 293 186 294 199 294 188 294 185 295 198 277 184 279 216 296 201 296 203 296 203 297 204 297 216 297 216 298 200 298 201 298 202 249 212 284 204 251 215 288 211 288 200 287</p>
				</triangles>
			</mesh>
		</geometry>
	</library_geometries>
	<library_controllers>
		<controller id="polygon0_Controller">
			<skin source="#polygon0">
				<bind_shape_matrix>1 0 0 0 0 1 0 0 0 0 1 0 0 0 0 1</bind_shape_matrix>
				<source id="polygon0_Joints">
					<Name_array id="polygon0_JointArr" count="19">TopN BustN HeadN HipN LArmJ LFootJ LHandN LKneeJ LLegJ LShoulderJ Pony01N Pony02N Pony04N RArmJ RFootJ RHandN RKneeJ RLegJ RShoulderJ</Name_array>
					<technique_common>
						<accessor source="#polygon0_JointArr" count="19">
							<param name="JOINT" type="Name" />
						</accessor>
					</technique_common>
				</source>
				<source id="polygon0_Matrices">
					<float_array id="polygon0_MatArr" count="304">1 0 0 0 0 1 0 0 0 0 1 0 0 0 0 1 1 0 0 0 0 1 0 -13.48244 0 0 1 -0.549711 0 0 0 1 1 0 0 0 0 1 0 -17.03257 0 0 1 -0.074085 0 0 0 1 1 0 0 0 0 1 0 -10.95244 0 0 1 -0.216711 0 0 0 1 1 0 0 -5.064274 0 1 0 -15.7124 0 0 1 0.296999 0 0 0 1 1 0 0 -1.154417 0 1 0 -1.169152 0 0 1 0.276689 0 0 0 1 1 0 0 -7.806236 0 1 0 -15.80471 0 0 1 0.266834 0 0 0 1 1 0 0 -1.159364 0 1 0 -5.765357 0 0 1 -0.026931 0 0 0 1 1 0 0 -1.152103 0 1 0 -10.65262 0 0 1 -0.383038 0 0 0 1 1 0 0 -2.076615 0 1 0 -15.74493 0 0 1 0.193603 0 0 0 1 0 -0.8862296 -0.4633989 15.40367 0 -0.4633989 0.8862296 8.808231 -1 0 0 0 0 0 0 1 0 -0.9218035 -0.3877924 14.63106 0 -0.3877924 0.9218035 7.670061 -1 0 0 0 0 0 0 1 0 -0.9824912 -0.1866732 12.71509 0 -0.1866732 0.9824912 4.824857 -1 0 0 0 0 0 0 1 1 0 0 5.06427 0 -1 0 15.7124 0 0 -1 -0.296999 0 0 0 1 1 0 0 1.15442 0 -1 0 1.16915 0 0 -1 -0.276689 0 0 0 1 1 0 0 7.80624 0 -1 0 15.8047 0 0 -1 -0.266834 0 0 0 1 1 0 0 1.15936 0 -1 0 5.76536 0 0 -1 0.026931 0 0 0 1 1 0 0 1.1521 0 -1 0 10.6526 0 0 -1 0.383038 0 0 0 1 1 0 0 2.07661 0 -1 0 15.7449 0 0 -1 -0.193603 0 0 0 1</float_array>
					<technique_common>
						<accessor source="#polygon0_MatArr" count="19" stride="16">
							<param type="float4x4" />
						</accessor>
					</technique_common>
				</source>
				<source id="polygon0_Weights">
					<float_array id="polygon0_WeightArr" count="2">1 0.5</float_array>
					<technique_common>
						<accessor source="#polygon0_WeightArr" count="2">
							<param type="float" />
						</accessor>
					</technique_common>
				</source>
				<joints>
					<input semantic="JOINT" source="#polygon0_Joints" />
					<input semantic="INV_BIND_MATRIX" source="#polygon0_Matrices" />
				</joints>
				<vertex_weights count="217">
					<input semantic="JOINT" offset="0" source="#polygon0_Joints" />
					<input semantic="WEIGHT" offset="1" source="#polygon0_Weights" />
					<vcount>1 1 1 1 1 1 1 1 1 1 1 1 1 1 1 1 1 1 1 1 1 1 1 1 1 1 1 1 1 1 1 1 1 1 1 1 1 1 1 1 1 1 1 1 1 1 1 1 1 1 1 1 1 1 1 1 1 1 1 1 1 1 1 1 1 1 1 1 1 1 1 1 1 1 1 1 1 1 1 1 1 1 1 1 1 1 1 1 1 1 1 1 1 1 1 1 1 1 1 1 1 1 1 2 2 1 1 1 1 1 1 1 1 1 1 1 1 1 1 1 1 2 1 1 1 1 1 1 1 1 1 1 1 1 1 1 1 1 1 1 1 1 1 1 1 1 1 1 1 1 1 1 1 1 2 1 1 1 1 1 1 1 1 1 1 1 2 1 1 1 1 1 1 1 1 1 1 1 1 1 1 1 1 1 1 1 1 1 1 1 1 1 1 1 1 1 1 1 1 1 1 1 1 1 1 1 1 1 1 1 1 1 1 1 1 1 1</vcount>
					<v>18 0 18 0 18 0 18 0 18 0 18 0 18 0 18 0 18 0 18 0 18 0 13 0 13 0 13 0 13 0 13 0 13 0 13 0 13 0 13 0 13 0 4 0 4 0 4 0 4 0 4 0 4 0 4 0 4 0 4 0 4 0 9 0 9 0 9 0 9 0 9 0 9 0 9 0 9 0 9 0 16 0 16 0 16 0 16 0 16 0 17 0 17 0 17 0 17 0 17 0 17 0 17 0 17 0 17 0 17 0 17 0 7 0 7 0 7 0 7 0 7 0 7 0 8 0 8 0 8 0 8 0 8 0 8 0 8 0 8 0 8 0 7 0 7 0 8 0 8 0 16 0 16 0 16 0 17 0 4 0 9 0 4 0 4 0 13 0 13 0 16 0 16 0 7 0 7 0 7 0 13 0 9 0 8 0 16 0 1 0 1 0 1 0 1 0 1 0 1 0 1 0 1 0 1 0 1 1 3 1 1 1 3 1 3 0 3 0 3 0 12 0 12 0 12 0 12 0 11 0 11 0 10 0 10 0 2 0 2 0 1 0 1 0 1 0 1 1 3 1 3 0 2 0 2 0 2 0 2 0 2 0 2 0 2 0 12 0 12 0 11 0 11 0 2 0 2 0 2 0 2 0 2 0 2 0 2 0 2 0 2 0 2 0 2 0 2 0 2 0 2 0 2 0 2 0 2 0 2 0 2 0 2 0 1 1 3 1 3 0 3 0 1 0 1 0 2 0 1 0 2 0 2 0 2 0 1 0 1 0 1 1 3 1 3 0 1 0 12 0 12 0 12 0 1 0 2 0 11 0 10 0 1 0 14 0 14 0 14 0 14 0 14 0 14 0 14 0 6 0 6 0 6 0 6 0 6 0 6 0 15 0 15 0 15 0 15 0 15 0 14 0 14 0 6 0 6 0 6 0 5 0 5 0 5 0 5 0 5 0 15 0 15 0 15 0 15 0 15 0 15 0 5 0 5 0 6 0 6 0 5 0 5 0</v>
				</vertex_weights>
			</skin>
		</controller>
	</library_controllers>
	<library_visual_scenes>
		<visual_scene id="RootNode" name="RootNode">
			<node id="TopN" name="TopN" sid="TopN" type="JOINT">
				<node id="BustN" name="BustN" sid="BustN" type="JOINT">
					<translate>0 13.48244 0.549711</translate>
				</node>
				<node id="HeadN" name="HeadN" sid="HeadN" type="JOINT">
					<translate>0 17.03257 0.074085</translate>
				</node>
				<node id="HipN" name="HipN" sid="HipN" type="JOINT">
					<translate>0 10.95244 0.216711</translate>
				</node>
				<node id="LArmJ" name="LArmJ" sid="LArmJ" type="JOINT">
					<translate>5.064274 15.7124 -0.296999</translate>
				</node>
				<node id="LFootJ" name="LFootJ" sid="LFootJ" type="JOINT">
					<translate>1.154417 1.169152 -0.276689</translate>
				</node>
				<node id="LHandN" name="LHandN" sid="LHandN" type="JOINT">
					<translate>7.806236 15.80471 -0.266834</translate>
				</node>
				<node id="LKneeJ" name="LKneeJ" sid="LKneeJ" type="JOINT">
					<translate>1.159364 5.765357 0.026931</translate>
				</node>
				<node id="LLegJ" name="LLegJ" sid="LLegJ" type="JOINT">
					<translate>1.152103 10.65262 0.383038</translate>
				</node>
				<node id="LShoulderJ" name="LShoulderJ" sid="LShoulderJ" type="JOINT">
					<translate>2.076615 15.74493 -0.193603</translate>
				</node>
				<node id="Pony01N" name="Pony01N" sid="Pony01N" type="JOINT">
					<translate>0 17.7304 -0.667977</translate>
					<rotate>0 0 1 -90</rotate>
					<rotate>0 1 0 27.60455</rotate>
					<rotate>1 0 0 90</rotate>
				</node>
				<node id="Pony02N" name="Pony02N" sid="Pony02N" type="JOINT">
					<translate>0 16.45963 -1.39633</translate>
					<rotate>0 0 1 -90</rotate>
					<rotate>0 1 0 22.81599</rotate>
					<rotate>1 0 0 90</rotate>
				</node>
				<node id="Pony04N" name="Pony04N" sid="Pony04N" type="JOINT">
					<translate>0 13.39132 -2.36649</translate>
					<rotate>0 0 1 -90</rotate>
					<rotate>0 1 0 10.75797</rotate>
					<rotate>1 0 0 90</rotate>
				</node>
				<node id="RArmJ" name="RArmJ" sid="RArmJ" type="JOINT">
					<translate>-5.06427 15.7124 -0.296999</translate>
					<rotate>1 0 0 -180</rotate>
				</node>
				<node id="RFootJ" name="RFootJ" sid="RFootJ" type="JOINT">
					<translate>-1.15442 1.16915 -0.276689</translate>
					<rotate>1 0 0 -180</rotate>
				</node>
				<node id="RHandN" name="RHandN" sid="RHandN" type="JOINT">
					<translate>-7.80624 15.8047 -0.266834</translate>
					<rotate>1 0 0 -180</rotate>
				</node>
				<node id="RKneeJ" name="RKneeJ" sid="RKneeJ" type="JOINT">
					<translate>-1.15936 5.76536 0.026931</translate>
					<rotate>1 0 0 -180</rotate>
				</node>
				<node id="RLegJ" name="RLegJ" sid="RLegJ" type="JOINT">
					<translate>-1.1521 10.6526 0.383038</translate>
					<rotate>1 0 0 -180</rotate>
				</node>
				<node id="RShoulderJ" name="RShoulderJ" sid="RShoulderJ" type="JOINT">
					<translate>-2.07661 15.7449 -0.193603</translate>
					<rotate>1 0 0 -180</rotate>
				</node>
			</node>
			<node id="polygon0" name="polygon0" type="NODE">
				<instance_controller url="#polygon0_Controller">
					<skeleton>#TopN</skeleton>
					<bind_material>
						<technique_common>
							<instance_material symbol="ShdSheik" target="#ShdSheik" />
						</technique_common>
					</bind_material>
				</instance_controller>
			</node>
		</visual_scene>
	</library_visual_scenes>
	<scene>
		<instance_visual_scene url="#RootNode" />
	</scene>
</COLLADA>